<?xml version="1.0" encoding="UTF-8"?>

<svg xmlns="http://www.w3.org/2000/svg" version="1.1" width="413px" height="413px" style="shape-rendering:geometricPrecision; text-rendering:geometricPrecision; image-rendering:optimizeQuality; fill-rule:evenodd; clip-rule:evenodd" xmlns:xlink="http://www.w3.org/1999/xlink">
<g><path style="opacity:0.373" fill="#522f12" d="M 199.5,7.5 C 198.341,9.25027 196.674,10.2503 194.5,10.5C 195.659,8.74973 197.326,7.74973 199.5,7.5 Z"></path></g>
<g><path style="opacity:1" fill="#feb137" d="M 205.5,5.5 C 213.232,10.0328 221.232,14.0328 229.5,17.5C 229.369,18.3764 229.702,19.0431 230.5,19.5C 235.998,22.4148 241.332,25.5815 246.5,29C 250.869,31.8848 255.536,34.0515 260.5,35.5C 260.369,36.3764 260.702,37.0431 261.5,37.5C 266.998,40.4148 272.332,43.5815 277.5,47C 286.521,52.5425 295.855,57.3758 305.5,61.5C 308.485,65.334 312.485,67.6674 317.5,68.5C 318.985,71.0827 321.318,72.416 324.5,72.5C 325.642,74.4331 327.308,75.9331 329.5,77C 345.888,86.1908 362.221,95.3574 378.5,104.5C 378.5,104.833 378.5,105.167 378.5,105.5C 321.056,138.727 263.389,171.727 205.5,204.5C 205.5,138.167 205.5,71.8333 205.5,5.5 Z"></path></g>
<g><path style="opacity:0.38" fill="#483213" d="M 229.5,17.5 C 221.232,14.0328 213.232,10.0328 205.5,5.5C 204.167,5.83333 202.833,6.16667 201.5,6.5C 202.918,4.2918 204.918,3.45846 207.5,4C 215.064,8.2745 222.398,12.7745 229.5,17.5 Z"></path></g>
<g><path style="opacity:0.373" fill="#4e2c0f" d="M 192.5,11.5 C 191.341,13.2503 189.674,14.2503 187.5,14.5C 188.659,12.7497 190.326,11.7497 192.5,11.5 Z"></path></g>
<g><path style="opacity:0.345" fill="#4d2c11" d="M 185.5,15.5 C 184.341,17.2503 182.674,18.2503 180.5,18.5C 181.659,16.7497 183.326,15.7497 185.5,15.5 Z"></path></g>
<g><path style="opacity:1" fill="#fd8e2f" d="M 205.5,5.5 C 205.5,71.8333 205.5,138.167 205.5,204.5C 148.27,172.057 91.2696,139.39 34.5,106.5C 36.4246,104.761 38.0912,102.761 39.5,100.5C 41.3356,98.412 43.6689,97.0787 46.5,96.5C 48.8477,96.4077 50.5144,95.4077 51.5,93.5C 55.833,90.331 60.4997,87.6643 65.5,85.5C 67.8477,85.4077 69.5144,84.4077 70.5,82.5C 72.3356,80.412 74.6689,79.0787 77.5,78.5C 79.8477,78.4077 81.5144,77.4077 82.5,75.5C 84.3356,73.412 86.6689,72.0787 89.5,71.5C 91.8477,71.4077 93.5144,70.4077 94.5,68.5C 98.833,65.331 103.5,62.6643 108.5,60.5C 110.027,60.573 111.027,59.9063 111.5,58.5C 114.008,56.0764 117.008,54.4097 120.5,53.5C 122.848,53.4077 124.514,52.4077 125.5,50.5C 127.848,50.4077 129.514,49.4077 130.5,47.5C 132.674,47.2503 134.341,46.2503 135.5,44.5C 136.514,43.3263 137.847,42.6596 139.5,42.5C 141.848,42.4077 143.514,41.4077 144.5,39.5C 146.027,39.573 147.027,38.9063 147.5,37.5C 148.514,36.3263 149.847,35.6596 151.5,35.5C 153.027,35.573 154.027,34.9063 154.5,33.5C 154.842,32.6618 155.508,32.3284 156.5,32.5C 158.027,32.573 159.027,31.9063 159.5,30.5C 160.514,29.3263 161.847,28.6596 163.5,28.5C 165.848,28.4077 167.514,27.4077 168.5,25.5C 170.674,25.2503 172.341,24.2503 173.5,22.5C 173.842,21.6618 174.508,21.3284 175.5,21.5C 177.848,21.4077 179.514,20.4077 180.5,18.5C 182.674,18.2503 184.341,17.2503 185.5,15.5C 185.842,14.6618 186.508,14.3284 187.5,14.5C 189.674,14.2503 191.341,13.2503 192.5,11.5C 192.842,10.6618 193.508,10.3284 194.5,10.5C 196.674,10.2503 198.341,9.25027 199.5,7.5C 199.842,6.66175 200.508,6.32842 201.5,6.5C 202.833,6.16667 204.167,5.83333 205.5,5.5 Z"></path></g>
<g><path style="opacity:0.533" fill="#754118" d="M 180.5,18.5 C 179.514,20.4077 177.848,21.4077 175.5,21.5C 176.659,19.7497 178.326,18.7497 180.5,18.5 Z"></path></g>
<g><path style="opacity:0.376" fill="#463215" d="M 229.5,17.5 C 240.333,22.7459 250.666,28.7459 260.5,35.5C 255.536,34.0515 250.869,31.8848 246.5,29C 241.332,25.5815 235.998,22.4148 230.5,19.5C 229.702,19.0431 229.369,18.3764 229.5,17.5 Z"></path></g>
<g><path style="opacity:0.376" fill="#4f2c12" d="M 173.5,22.5 C 172.341,24.2503 170.674,25.2503 168.5,25.5C 169.659,23.7497 171.326,22.7497 173.5,22.5 Z"></path></g>
<g><path style="opacity:0.522" fill="#764114" d="M 168.5,25.5 C 167.514,27.4077 165.848,28.4077 163.5,28.5C 164.659,26.7497 166.326,25.7497 168.5,25.5 Z"></path></g>
<g><path style="opacity:0.478" fill="#553113" d="M 159.5,30.5 C 159.027,31.9063 158.027,32.573 156.5,32.5C 156.973,31.0937 157.973,30.427 159.5,30.5 Z"></path></g>
<g><path style="opacity:0.545" fill="#653713" d="M 154.5,33.5 C 154.027,34.9063 153.027,35.573 151.5,35.5C 151.973,34.0937 152.973,33.427 154.5,33.5 Z"></path></g>
<g><path style="opacity:0.514" fill="#5d3212" d="M 147.5,37.5 C 147.027,38.9063 146.027,39.573 144.5,39.5C 144.973,38.0937 145.973,37.427 147.5,37.5 Z"></path></g>
<g><path style="opacity:0.576" fill="#7e4416" d="M 144.5,39.5 C 143.514,41.4077 141.848,42.4077 139.5,42.5C 140.659,40.7497 142.326,39.7497 144.5,39.5 Z"></path></g>
<g><path style="opacity:0.267" fill="#402412" d="M 135.5,44.5 C 134.341,46.2503 132.674,47.2503 130.5,47.5C 131.659,45.7497 133.326,44.7497 135.5,44.5 Z"></path></g>
<g><path style="opacity:0.455" fill="#4a3416" d="M 260.5,35.5 C 275.671,43.9174 290.671,52.5841 305.5,61.5C 295.855,57.3758 286.521,52.5425 277.5,47C 272.332,43.5815 266.998,40.4148 261.5,37.5C 260.702,37.0431 260.369,36.3764 260.5,35.5 Z"></path></g>
<g><path style="opacity:0.471" fill="#653915" d="M 130.5,47.5 C 129.514,49.4077 127.848,50.4077 125.5,50.5C 126.659,48.7497 128.326,47.7497 130.5,47.5 Z"></path></g>
<g><path style="opacity:0.541" fill="#784114" d="M 125.5,50.5 C 124.514,52.4077 122.848,53.4077 120.5,53.5C 121.659,51.7497 123.326,50.7497 125.5,50.5 Z"></path></g>
<g><path style="opacity:0.545" fill="#613717" d="M 111.5,58.5 C 111.027,59.9063 110.027,60.573 108.5,60.5C 108.973,59.0937 109.973,58.427 111.5,58.5 Z"></path></g>
<g><path style="opacity:0.439" fill="#463214" d="M 305.5,61.5 C 309.836,63.332 313.836,65.6654 317.5,68.5C 312.485,67.6674 308.485,65.334 305.5,61.5 Z"></path></g>
<g><path style="opacity:0.522" fill="#723f14" d="M 94.5,68.5 C 93.5144,70.4077 91.8477,71.4077 89.5,71.5C 90.6594,69.7497 92.326,68.7497 94.5,68.5 Z"></path></g>
<g><path style="opacity:0.404" fill="#473317" d="M 317.5,68.5 C 320.331,69.0787 322.664,70.412 324.5,72.5C 321.318,72.416 318.985,71.0827 317.5,68.5 Z"></path></g>
<g><path style="opacity:0.529" fill="#724018" d="M 82.5,75.5 C 81.5144,77.4077 79.8477,78.4077 77.5,78.5C 78.6594,76.7497 80.326,75.7497 82.5,75.5 Z"></path></g>
<g><path style="opacity:0.573" fill="#794317" d="M 70.5,82.5 C 69.5144,84.4077 67.8477,85.4077 65.5,85.5C 66.6594,83.7497 68.326,82.7497 70.5,82.5 Z"></path></g>
<g><path style="opacity:0.522" fill="#523a17" d="M 324.5,72.5 C 342.799,82.316 360.799,92.6493 378.5,103.5C 378.5,103.833 378.5,104.167 378.5,104.5C 362.221,95.3574 345.888,86.1908 329.5,77C 327.308,75.9331 325.642,74.4331 324.5,72.5 Z"></path></g>
<g><path style="opacity:0.565" fill="#774214" d="M 51.5,93.5 C 50.5144,95.4077 48.8477,96.4077 46.5,96.5C 47.6594,94.7497 49.326,93.7497 51.5,93.5 Z"></path></g>
<g><path style="opacity:1" fill="#b8671d" d="M 39.5,100.5 C 38.0912,102.761 36.4246,104.761 34.5,106.5C 34.1667,106.5 33.8333,106.5 33.5,106.5C 32.1667,105.5 32.1667,104.5 33.5,103.5C 35.1815,101.992 37.1815,100.992 39.5,100.5 Z"></path></g>
<g><path style="opacity:0.02" fill="#010101" d="M 378.5,103.5 C 379.117,103.611 379.617,103.944 380,104.5C 380.832,172.001 380.665,239.335 379.5,306.5C 379.5,306.167 379.5,305.833 379.5,305.5C 379.5,241.5 379.5,177.5 379.5,113.5C 379.806,110.615 379.473,107.948 378.5,105.5C 378.5,105.167 378.5,104.833 378.5,104.5C 378.5,104.167 378.5,103.833 378.5,103.5 Z"></path></g>
<g><path style="opacity:1" fill="#254a7a" d="M 33.5,106.5 C 33.8333,106.5 34.1667,106.5 34.5,106.5C 91.2696,139.39 148.27,172.057 205.5,204.5C 205.5,271.5 205.5,338.5 205.5,405.5C 203.5,404.833 201.5,404.167 199.5,403.5C 197.326,403.25 195.659,402.25 194.5,400.5C 193.016,398.926 191.349,397.593 189.5,396.5C 189.5,395.167 189.5,393.833 189.5,392.5C 186.017,393.084 183.017,392.251 180.5,390C 180.833,389.667 181.167,389.333 181.5,389C 176.751,387.791 172.418,385.791 168.5,383C 166.866,382.506 165.199,382.34 163.5,382.5C 161.046,380.715 159.379,378.382 158.5,375.5C 153.773,376.273 151.273,374.273 151,369.5C 150.333,370.167 149.667,370.833 149,371.5C 147.301,370.594 145.467,370.261 143.5,370.5C 143.66,368.801 143.494,367.134 143,365.5C 141.951,366.517 140.784,366.684 139.5,366C 140.167,365.667 140.833,365.333 141.5,365C 139.061,364.226 137.227,362.726 136,360.5C 134.691,362.891 133.691,362.891 133,360.5C 132.586,360.957 132.086,361.291 131.5,361.5C 130.41,360.273 129.076,359.44 127.5,359C 128.654,358.086 128.487,357.253 127,356.5C 124.646,356.892 122.146,356.892 119.5,356.5C 119.5,355.5 119.5,354.5 119.5,353.5C 116.664,352.224 113.664,351.558 110.5,351.5C 109.366,348.05 107.533,345.05 105,342.5C 104.517,343.448 104.351,344.448 104.5,345.5C 102.435,345.483 100.435,345.15 98.5,344.5C 97.4641,340.975 95.1308,338.808 91.5,338C 92.7112,337.107 92.7112,336.274 91.5,335.5C 90.7065,335.931 89.8732,336.265 89,336.5C 86.4102,335.123 83.9102,333.623 81.5,332C 81.8333,331.667 82.1667,331.333 82.5,331C 81.0692,330.535 79.9025,329.701 79,328.5C 78.6667,329.167 78.3333,329.833 78,330.5C 73.3892,327.086 68.2225,324.753 62.5,323.5C 57.9758,321.957 53.9758,319.623 50.5,316.5C 48.6644,314.412 46.3311,313.079 43.5,312.5C 41.326,312.25 39.6594,311.25 38.5,309.5C 36.8657,308.028 35.3657,306.362 34,304.5C 33.6667,300.167 33.3333,295.833 33,291.5C 32.168,229.665 32.3347,167.999 33.5,106.5 Z"></path></g>
<g><path style="opacity:1" fill="#e6e5e5" d="M 378.5,105.5 C 379.473,107.948 379.806,110.615 379.5,113.5C 378.833,176.668 378.167,240.001 377.5,303.5C 321.004,271.419 264.67,239.086 208.5,206.5C 207.168,272.332 207.168,337.999 208.5,403.5C 208.027,404.906 207.027,405.573 205.5,405.5C 205.5,338.5 205.5,271.5 205.5,204.5C 263.389,171.727 321.056,138.727 378.5,105.5 Z"></path></g>
<g><path style="opacity:0.672" fill="#111f35" d="M 33.5,103.5 C 32.1667,104.5 32.1667,105.5 33.5,106.5C 32.3347,167.999 32.168,229.665 33,291.5C 33.3333,295.833 33.6667,300.167 34,304.5C 35.3657,306.362 36.8657,308.028 38.5,309.5C 35.6575,308.828 33.1575,307.494 31,305.5C 30.2271,241.091 30.3938,176.924 31.5,113C 28.84,111.324 28.84,109.657 31.5,108C 30.3593,105.776 31.026,104.276 33.5,103.5 Z"></path></g>
<g><path style="opacity:1" fill="#d4d4d5" d="M 379.5,113.5 C 379.5,177.5 379.5,241.5 379.5,305.5C 322.663,338.42 265.663,371.086 208.5,403.5C 207.168,337.999 207.168,272.332 208.5,206.5C 264.67,239.086 321.004,271.419 377.5,303.5C 378.167,240.001 378.833,176.668 379.5,113.5 Z"></path></g>
<g><path style="opacity:0.122" fill="#040a10" d="M 43.5,312.5 C 46.3311,313.079 48.6644,314.412 50.5,316.5C 47.6689,315.921 45.3356,314.588 43.5,312.5 Z"></path></g>
<g><path style="opacity:1" fill="#1a3253" d="M 62.5,323.5 C 68.2225,324.753 73.3892,327.086 78,330.5C 78.3333,329.833 78.6667,329.167 79,328.5C 79.9025,329.701 81.0692,330.535 82.5,331C 82.1667,331.333 81.8333,331.667 81.5,332C 83.9102,333.623 86.4102,335.123 89,336.5C 89.8732,336.265 90.7065,335.931 91.5,335.5C 92.7112,336.274 92.7112,337.107 91.5,338C 95.1308,338.808 97.4641,340.975 98.5,344.5C 85.9762,338.29 73.9762,331.29 62.5,323.5 Z"></path></g>
<g><path style="opacity:1" fill="#192d4a" d="M 110.5,351.5 C 105.976,349.957 101.976,347.623 98.5,344.5C 100.435,345.15 102.435,345.483 104.5,345.5C 104.351,344.448 104.517,343.448 105,342.5C 107.533,345.05 109.366,348.05 110.5,351.5 Z"></path></g>
<g><path style="opacity:0.169" fill="#030811" d="M 120.5,357.5 C 123.331,358.079 125.664,359.412 127.5,361.5C 124.669,360.921 122.336,359.588 120.5,357.5 Z"></path></g>
<g><path style="opacity:1" fill="#1d3960" d="M 110.5,351.5 C 113.664,351.558 116.664,352.224 119.5,353.5C 119.5,354.5 119.5,355.5 119.5,356.5C 122.146,356.892 124.646,356.892 127,356.5C 128.487,357.253 128.654,358.086 127.5,359C 129.076,359.44 130.41,360.273 131.5,361.5C 132.086,361.291 132.586,360.957 133,360.5C 133.691,362.891 134.691,362.891 136,360.5C 137.227,362.726 139.061,364.226 141.5,365C 140.833,365.333 140.167,365.667 139.5,366C 140.784,366.684 141.951,366.517 143,365.5C 143.494,367.134 143.66,368.801 143.5,370.5C 145.467,370.261 147.301,370.594 149,371.5C 149.667,370.833 150.333,370.167 151,369.5C 151.273,374.273 153.773,376.273 158.5,375.5C 159.379,378.382 161.046,380.715 163.5,382.5C 159.164,380.668 155.164,378.335 151.5,375.5C 149.664,373.412 147.331,372.079 144.5,371.5C 138.332,368.92 132.665,365.586 127.5,361.5C 125.664,359.412 123.331,358.079 120.5,357.5C 116.827,356 113.494,354 110.5,351.5 Z"></path></g>
<g><path style="opacity:0.027" fill="#1a1a1a" d="M 379.5,305.5 C 379.5,305.833 379.5,306.167 379.5,306.5C 322.314,340.172 264.98,373.672 207.5,407C 204.24,407.204 201.573,406.037 199.5,403.5C 201.5,404.167 203.5,404.833 205.5,405.5C 207.027,405.573 208.027,404.906 208.5,403.5C 265.663,371.086 322.663,338.42 379.5,305.5 Z"></path></g>
<g><path style="opacity:0.173" fill="#02060d" d="M 144.5,371.5 C 147.331,372.079 149.664,373.412 151.5,375.5C 148.669,374.921 146.336,373.588 144.5,371.5 Z"></path></g>
<g><path style="opacity:0.998" fill="#1c3458" d="M 163.5,382.5 C 165.199,382.34 166.866,382.506 168.5,383C 172.418,385.791 176.751,387.791 181.5,389C 181.167,389.333 180.833,389.667 180.5,390C 183.017,392.251 186.017,393.084 189.5,392.5C 189.5,393.833 189.5,395.167 189.5,396.5C 188.833,396.5 188.167,396.5 187.5,396.5C 179.164,392.335 171.164,387.668 163.5,382.5 Z"></path></g>
<g><path style="opacity:0.04" fill="#03070d" d="M 187.5,396.5 C 188.167,396.5 188.833,396.5 189.5,396.5C 191.349,397.593 193.016,398.926 194.5,400.5C 191.594,399.892 189.26,398.559 187.5,396.5 Z"></path></g>
</svg>